<?xml version="1.0" encoding="utf-8"?>
<!-- Generator: Adobe Illustrator 22.1.0, SVG Export Plug-In . SVG Version: 6.00 Build 0)  -->
<svg version="1.1" id="Layer_1" xmlns="http://www.w3.org/2000/svg" xmlns:xlink="http://www.w3.org/1999/xlink" x="0px" y="0px"
	 viewBox="0 0 592 279" style="enable-background:new 0 0 592 279;" xml:space="preserve">
<style type="text/css">
	.st0{fill:url(#Path_1_);}
	.st1{fill:url(#Oval-12_2_);}
	.st2{fill:#A5B9CD;}
	.st3{fill:#C2D3E4;}
	.st4{fill:#B4C7DB;}
	.st5{fill:#FFFFFF;}
	.st6{fill:#8B96B9;}
	.st7{fill:#ECEAD8;}
	.st8{fill:#F7F5E3;}
	.st9{fill:#D3CFAE;}
	.st10{fill:#C4D4BF;}
	.st11{fill:#A1B49B;}
	.st12{fill:url(#Oval-12_3_);}
	.st13{fill:#EAAB95;}
	.st14{fill:#677499;}
	.st15{fill:#A391CA;}
	.st16{fill:url(#Path-29_1_);}
	.st17{fill:#C15D5D;}
	.st18{fill:#E58989;}
	.st19{fill:#855E5B;}
	.st20{fill:#D36969;}
	.st21{fill:url(#Path-14_2_);}
	.st22{fill:#D4C3B9;}
	.st23{fill:#FDFFFF;}
	.st24{fill:#D8D8D8;}
	.st25{fill:#DDC5EC;}
	.st26{fill:#CAE4E9;fill-opacity:0.2072;}
	.st27{fill:#FFFFFF;fill-opacity:0.4152;}
	.st28{fill:#EED8FC;}
	.st29{fill:#CEB7AA;}
	.st30{fill:url(#Oval-12-Copy_1_);}
	.st31{fill:#85C991;}
	.st32{filter:url(#Adobe_OpacityMaskFilter);}
	.st33{mask:url(#mask-10_1_);fill:url(#SVGID_1_);}
	.st34{fill:#A3867A;}
	.st35{fill:#6EB57A;}
	.st36{fill:#B39487;}
	.st37{fill:#8D7676;}
	.st38{fill:url(#Path-14_3_);}
	.st39{fill:#825B58;}
	.st40{fill:url(#Path-10_1_);}
	.st41{fill:#FFECB9;}
</style>
<title>500-img</title>
<desc>Created with Sketch.</desc>
<linearGradient id="Path_1_" gradientUnits="userSpaceOnUse" x1="180.8604" y1="252.9861" x2="180.8604" y2="251.9576" gradientTransform="matrix(111 0 0 -139.8634 -19608 35479.6367)">
	<stop  offset="0" style="stop-color:#DDC5EC"/>
	<stop  offset="1" style="stop-color:#C6E1E6"/>
</linearGradient>
<path id="Path" class="st0" d="M521,97.2l2-1.1v132.2c0,6.4-5.1,11.7-11.5,11.7h-88c-6.4,0-11.5-5.2-11.5-11.7v-14h2v14
	c0,5.3,4.3,9.7,9.5,9.7h88c5.2,0,9.5-4.3,9.5-9.7V97.2z"/>
<g id="Group-12" transform="translate(126.000000, 0.000000)">
	
		<radialGradient id="Oval-12_2_" cx="55.6613" cy="251.6591" r="0.5947" gradientTransform="matrix(1.898199e-15 31 163.5871 -1.001684e-14 -40993.1758 -1477.5)" gradientUnits="userSpaceOnUse">
		<stop  offset="0" style="stop-color:#B9CADE"/>
		<stop  offset="1" style="stop-color:#EAEFF5"/>
	</radialGradient>
	<ellipse id="Oval-12" class="st1" cx="175" cy="263.5" rx="98" ry="15.5"/>
	<path id="Rectangle-Copy" class="st2" d="M174,87h3c4.4,0,8,3.6,8,8v147c0,4.4-3.6,8-8,8h-3c-4.4,0-8-3.6-8-8V95
		C166,90.6,169.6,87,174,87z"/>
	<path id="Rectangle" class="st3" d="M8,0h334c4.4,0,8,3.6,8,8v202c0,4.4-3.6,8-8,8H8c-4.4,0-8-3.6-8-8V8C0,3.6,3.6,0,8,0z"/>
	<path id="Rectangle-Copy-3" class="st4" d="M255,249.5L255,249.5c0,3.6-2.9,6.5-6.5,6.5h-150c-3.6,0-6.5-2.9-6.5-6.5l0,0
		c0-3.6,2.9-6.5,6.5-6.5h150C252.1,243,255,245.9,255,249.5z"/>
	<path id="Rectangle_1_" class="st5" d="M18,12h314c3.3,0,6,2.7,6,6v182c0,3.3-2.7,6-6,6H18c-3.3,0-6-2.7-6-6V18
		C12,14.7,14.7,12,18,12z"/>
	<path id="_x35_00" class="st6" d="M126.5,83.4H90.6l-1,15.9l12.6,1.5c10.1,1.1,17.2,4,21.4,8.8c4.2,4.7,6.3,11.3,6.3,19.7
		c0,18.9-10.2,28.3-30.6,28.3c-8.5,0-18.2-0.9-29.2-2.8l1.8-15c9.4,1,16.9,1.5,22.6,1.5c6.4,0,10.6-0.9,12.8-2.8s3.3-5.1,3.5-9.7
		c0.3-5.2-1-8.6-3.7-10.2c-2.7-1.5-8.3-2.7-16.8-3.4L79.6,114c-1.9-0.2-3.4-0.9-4.5-2.3c-1.1-1.4-1.7-3-1.6-4.8l2.2-38.5h51.6
		L126.5,83.4z M171.7,66.7c12.5,0,21.3,3.4,26.3,10.2c5,6.8,7.5,18.5,7.5,35.3s-2.5,28.5-7.5,35.3c-5,6.8-13.8,10.2-26.3,10.2
		c-12.4,0-21.2-3.4-26.2-10.2c-5-6.8-7.5-18.5-7.5-35.3s2.5-28.5,7.5-35.3C150.5,70.1,159.2,66.7,171.7,66.7z M171.5,82.1
		c-5.7,0-9.5,2.1-11.5,6.2c-2,4.1-3,12.1-3,23.9s1,19.8,3,23.9c2,4.1,5.8,6.2,11.5,6.2c5.8,0,9.8-2.1,11.8-6.2c2-4.1,3-12.1,3-23.9
		s-1-19.8-3-23.9C181.3,84.1,177.4,82.1,171.5,82.1z M248.2,66.7c12.5,0,21.3,3.4,26.3,10.2c5,6.8,7.5,18.5,7.5,35.3
		s-2.5,28.5-7.5,35.3c-5,6.8-13.8,10.2-26.3,10.2c-12.4,0-21.2-3.4-26.2-10.2c-5-6.8-7.5-18.5-7.5-35.3s2.5-28.5,7.5-35.3
		C227,70.1,235.7,66.7,248.2,66.7z M248,82.1c-5.7,0-9.5,2.1-11.5,6.2c-2,4.1-3,12.1-3,23.9s1,19.8,3,23.9c2,4.1,5.8,6.2,11.5,6.2
		c5.8,0,9.8-2.1,11.8-6.2s3-12.1,3-23.9s-1-19.8-3-23.9S253.9,82.1,248,82.1z"/>
	
		<g id="Group-10" transform="translate(295.000000, 52.000000) rotate(-49.000000) translate(-295.000000, -52.000000) translate(284.000000, 12.000000)">
		<path id="Rectangle_2_" class="st7" d="M11,0L11,0c6.1,0,11,4.9,11,11l0,58c0,6.1-4.9,11-11,11l0,0C4.9,80,0,75.1,0,69l0-58
			C0,4.9,4.9,0,11,0z"/>
		<path id="Rectangle_3_" class="st8" d="M5,29l12,0c1.1,0,2,0.9,2,2l0,16c0,1.1-0.9,2-2,2L5,49c-1.1,0-2-0.9-2-2l0-16
			C3,29.9,3.9,29,5,29z"/>
		<g id="Group-4" transform="translate(5.000000, 54.000000)">
			<circle id="Oval" class="st9" cx="1" cy="1" r="1"/>
			<circle id="Oval_1_" class="st9" cx="6" cy="1" r="1"/>
			<circle id="Oval_2_" class="st9" cx="11" cy="1" r="1"/>
			<circle id="Oval_3_" class="st9" cx="1" cy="7" r="1"/>
			<circle id="Oval_4_" class="st9" cx="6" cy="7" r="1"/>
			<circle id="Oval_5_" class="st9" cx="11" cy="7" r="1"/>
			<circle id="Oval_6_" class="st9" cx="1" cy="13" r="1"/>
			<circle id="Oval_7_" class="st9" cx="6" cy="13" r="1"/>
			<circle id="Oval_8_" class="st9" cx="11" cy="13" r="1"/>
		</g>
		<g id="Group-9" transform="translate(5.000000, 10.000000)">
			<circle id="Oval_9_" class="st9" cx="1" cy="1" r="1"/>
			<circle id="Oval_10_" class="st9" cx="6" cy="1" r="1"/>
			<circle id="Oval_11_" class="st9" cx="11" cy="1" r="1"/>
			<circle id="Oval_12_" class="st9" cx="1" cy="7" r="1"/>
			<circle id="Oval_13_" class="st9" cx="6" cy="7" r="1"/>
			<circle id="Oval_14_" class="st9" cx="11" cy="7" r="1"/>
			<circle id="Oval_15_" class="st9" cx="1" cy="13" r="1"/>
			<circle id="Oval_16_" class="st9" cx="6" cy="13" r="1"/>
			<circle id="Oval_17_" class="st9" cx="11" cy="13" r="1"/>
		</g>
	</g>
</g>
<path id="Rectangle-Copy-8" class="st10" d="M8,63h82c4.4,0,8,3.6,8,8v48c0,4.4-3.6,8-8,8H8c-4.4,0-8-3.6-8-8V71C0,66.6,3.6,63,8,63
	z"/>
<path id="Rectangle-Copy-9" class="st11" d="M8,67h82c2.2,0,4,1.8,4,4v48c0,2.2-1.8,4-4,4H8c-2.2,0-4-1.8-4-4V71C4,68.8,5.8,67,8,67
	z"/>
<g id="Group-8" transform="translate(90.000000, 126.000000)">
	<g id="Group">
		
			<radialGradient id="Oval-12_3_" cx="89.6111" cy="122.9395" r="0.5947" gradientTransform="matrix(5.510896e-16 9 47.493 -2.908114e-15 -5809.7637 -666.5)" gradientUnits="userSpaceOnUse">
			<stop  offset="0" style="stop-color:#B9CADE"/>
			<stop  offset="1" style="stop-color:#EAEFF5"/>
		</radialGradient>
		<ellipse id="Oval-12_1_" class="st12" cx="29" cy="144.5" rx="29" ry="4.5"/>
		<g id="Group-6">
			
				<g id="Group-3" transform="translate(27.217913, 100.880385) rotate(-1.000000) translate(-27.217913, -100.880385) translate(9.717913, 59.880385)">
				<polygon id="Path-28" class="st13" points="10.1,65.5 12,79.1 14.9,79.1 16.3,63.2 				"/>
				<polygon id="Path-28-Copy" class="st13" points="21,66.5 22.4,80.1 25.4,79.9 27.3,64.4 				"/>
				<path id="Path-30-Copy-2" class="st14" d="M11.9,79c-0.4,0.6-0.4,1.2,0,1.7c2.6-0.1,4.2-0.2,4.6-0.3c0.7-0.2,2.9-0.8-1.7-1.4"/>
				<path id="Path-30-Copy-3" class="st14" d="M22.4,79.5c-0.4,0.6-0.4,1.2,0,1.7c2.6-0.1,4.2-0.2,4.6-0.3c0.7-0.2,2.9-0.8-1.7-1.4"
					/>
				<path class="st15" d="M30.6,6c-1.1,0-2.1,0-3,0c-0.4-3.9-3.9-5.5-10.6-4.8C9.8,1.9,3.9,12.8,2.4,24.2C2,27.8,5.1,39.3,5.1,43.2
					C5.2,59.8,8.2,68.1,9.5,70c1.1,1.6,2.3,1.4,3.5,1.4c0.7,0,1.6-0.4,2.6-1.3c0.7-1.7,1.3-4.1,1.9-7.1c1.3,4.9,2.6,8.3,3.7,9.2
					c2.5,1.9,4.4,1.7,5.9-0.4C36.2,44.1,37.3,22.1,30.6,6z"/>
				
					<linearGradient id="Path-29_1_" gradientUnits="userSpaceOnUse" x1="62.8115" y1="68.1031" x2="62.1581" y2="68.078" gradientTransform="matrix(8.9986 0.5719 0.1571 -32.7659 -555.9521 2240.543)">
					<stop  offset="0" style="stop-color:#7358B0"/>
					<stop  offset="1" style="stop-color:#A391CA"/>
				</linearGradient>
				<path id="Path-29" class="st16" d="M9.7,29.5c1.7,0,11.4,4.3,8.1,32.5C17.4,66,8,29.5,9.7,29.5z"/>
			</g>
			<path id="Path-31" class="st13" d="M66,31.2c2.3-4.8,4.2-7.5,5.9-8c1.7-0.5,1.4,0.5-0.7,3c1.1,2.1,0.8,4-1,5.7
				C68.4,33.6,67,33.3,66,31.2z"/>
			<path id="Path-20" class="st13" d="M36.6,9.7c1.2,9.7-0.8,15.5-6.2,17.2c-5.3,1.7-8.2,1.4-8.5-1l4.3-16.3C31.5,7.9,34,7,34,7
				S34.9,7.9,36.6,9.7z"/>
			<path id="Path-19" class="st13" d="M29.8,23.4c-2.5,3.2-2.6,7.2-0.3,11.8c3.4,7-13.5-1.1-13.5-2.1c0-0.7,1.9-5.7,5.7-15.1
				L29.8,23.4z"/>
			<path id="Path-2" class="st17" d="M15,32.7l1-3.3c5.7-1.1,11.5,0.2,17.3,4.1s2.2,6-11,6.5L15,32.7z"/>
			<path id="Path-23" class="st18" d="M31.9,32.6c9.4,3.1-3.4,8.6,4.1,13.1c5,3.1,6.2,9.8,3.6,20.2c-6.3,4-13.4,5.1-21.4,3.2
				c-12.1-2.9-4.9-35.4-4.1-36.8C14.9,31,22.5,29.5,31.9,32.6z"/>
			<path id="Path-25" class="st18" d="M0,0"/>
			<path class="st18" d="M66.4,31c-4.2,5-8.4,8.8-12.8,11.4c0,0-0.1,0-0.1,0.1c-8.6-4.4-24-13.8-29.8-10c-4,2.6-2.9,12.2,3.3,28.7
				c13.8-2.5,23.1-4.8,28.1-7c0.9-0.4,1.7-0.8,2.4-1.2c0.7-0.1,1.4-0.5,2-1c5-4.4,7.3-8.5,10.5-19.7L66.4,31z"/>
			<g id="Group-5" transform="translate(4.000000, 0.000000)">
				<path id="Combined-Shape" class="st19" d="M20.6,27.7c-3.3,1.9-8.2,1.7-14.8-0.7c-6.8-2.5-7.6-5.2-2.4-8.3
					c2.4-1.7,4.4-4.7,6.2-8.9C9.7,9.4,9.9,9,10,8.6c0.1-0.3,0.3-0.6,0.4-0.8c0.3-0.5,0.6-1,0.9-1.4C14.5,2,18.4-0.1,23.2,0
					c0.9,0,1.8,0.1,2.7,0.3c0,0,0,0,0,0l0,0c0.8,0.2,1.6,0.5,2.3,0.8c6,2.9,7.5,4.1,7.6,6.6c0.1,2.5-1.7,3.5-7.2,3.5
					c-3.7,0-5.5,2.3-5.6,6.9c0.1,5-0.6,8.1-2.2,9.3c0,0,0,0-0.1,0C20.8,27.6,20.7,27.7,20.6,27.7z"/>
				<path id="Path-3" class="st20" d="M36.9,58.8l-9,0.8l8.3,4.1c0.2-1,0.3-1.8,0.4-2.4C36.7,60.8,36.8,59.9,36.9,58.8z"/>
				
					<linearGradient id="Path-14_2_" gradientUnits="userSpaceOnUse" x1="27.5883" y1="132.0494" x2="28.6449" y2="132.0494" gradientTransform="matrix(3 0 0 -4.5 -51.211 611.4724)">
					<stop  offset="0" style="stop-color:#EAAB95"/>
					<stop  offset="1" style="stop-color:#DF9A81"/>
				</linearGradient>
				<path id="Path-14" class="st21" d="M31.7,15c1.4,0.9,2.1,1.7,2.1,2.5c0,0.8-0.8,1.4-2.4,2l-0.6-2.7l0.6-1.8H31.7z"/>
			</g>
		</g>
	</g>
</g>
<path id="Rectangle-Copy-5" class="st22" d="M552,55.5v190c0,1.9-1.6,3.5-3.5,3.5l0,0c-1.9,0-3.5-1.6-3.5-3.5v-190
	c0-1.9,1.6-3.5,3.5-3.5l0,0C550.4,52,552,53.6,552,55.5z"/>
<path id="Rectangle_4_" class="st23" d="M514,63h17c3.3,0,6,2.7,6,6v25c0,3.3-2.7,6-6,6h-17c-3.3,0-6-2.7-6-6V69
	C508,65.7,510.7,63,514,63z"/>
<path id="Rectangle-Copy-6" class="st23" d="M566,63h17c3.3,0,6,2.7,6,6v25c0,3.3-2.7,6-6,6h-17c-3.3,0-6-2.7-6-6V69
	C560,65.7,562.7,63,566,63z"/>
<g>
	<rect x="521" y="55" class="st24" width="2" height="8"/>
	<rect x="573" y="55" class="st24" width="2" height="8"/>
</g>
<path id="Rectangle_6_" class="st25" d="M510,78h25v15c0,2.8-2.2,5-5,5h-15c-2.8,0-5-2.2-5-5V78z"/>
<path id="Rectangle_7_" class="st26" d="M535,78h-25v-8c0-2.8,2.2-5,5-5h15c2.8,0,5,2.2,5,5V78z"/>
<path id="Rectangle-Copy-10" class="st26" d="M587,78h-25v-8c0-2.8,2.2-5,5-5h15c2.8,0,5,2.2,5,5V78z"/>
<path id="Rectangle-Copy-7" class="st25" d="M562,78h25v15c0,2.8-2.2,5-5,5h-15c-2.8,0-5-2.2-5-5V78z"/>
<rect id="Rectangle_8_" x="512" y="64" class="st27" width="3" height="34"/>
<rect id="Rectangle-Copy-11" x="564" y="64" class="st27" width="3" height="34"/>
<g>
	<circle class="st28" cx="519.5" cy="90.5" r="1.5"/>
	<circle class="st28" cx="527.8" cy="83.8" r="1"/>
</g>
<g>
	<circle class="st28" cx="577.5" cy="92.5" r="1.5"/>
	<circle class="st28" cx="571.8" cy="83.8" r="1"/>
</g>
<path id="Rectangle_9_" class="st29" d="M508.5,48h80c1.9,0,3.5,1.6,3.5,3.5l0,0c0,1.9-1.6,3.5-3.5,3.5h-80c-1.9,0-3.5-1.6-3.5-3.5
	l0,0C505,49.6,506.6,48,508.5,48z"/>
<path id="Path-7" class="st29" d="M0,0"/>
<g id="Group-2" transform="translate(435.000000, 182.000000)">
	
		<radialGradient id="Oval-12-Copy_1_" cx="-253.8" cy="69.0472" r="0.5947" gradientTransform="matrix(1.224648e-15 20 105.5404 -6.462476e-15 -7242.2661 5150)" gradientUnits="userSpaceOnUse">
		<stop  offset="0" style="stop-color:#B9CADE"/>
		<stop  offset="1" style="stop-color:#EAEFF5"/>
	</radialGradient>
	<ellipse id="Oval-12-Copy" class="st30" cx="45" cy="84" rx="29" ry="10"/>
	<g id="Group-11">
		<path id="Path-31_1_" class="st13" d="M8.2,24.7c-2.3-4.8-4.4-7.5-6.1-8s-1.5,0.5,0.8,3.1c-1.1,2.2-0.8,4.1,1,5.8
			S7.1,26.9,8.2,24.7z"/>
		<path class="st31" d="M66.7,37.6c-1-1.3-1.7-2.3-2.2-2.8c-1.1-1.2-2.2-2-3-2.7c-1.3-1.1-2.9-2.1-4.7-3c-0.2,0.1-0.4,0.2-0.6,0.2
			l-11.4,0.3c-0.1-0.1-0.2-0.1-0.3-0.2C38.9,25.7,29,32.1,21,36.2c-0.1-0.1-0.3-0.2-0.4-0.3c-4.3-2.5-8.5-6.3-12.5-11.5L4.5,26
			c3.2,11.2,4.7,15.1,9.6,19.5c0.2,0.2,0.4,0.3,0.7,0.5c0.9,0.8,2.3,1.6,4,2.4c3.1,1.4,6.8,2.5,11.2,3.6c-0.4,3.5-0.5,7.7-0.5,12.7
			c11.3,4.4,22.5,4.9,33.5,1.4c0.7-2.7,0.7-5.3,0.2-7.8c0.2,0,0.5-0.1,0.7-0.1C73.8,56.5,74.8,49.7,66.7,37.6z"/>
		<defs>
			<filter id="Adobe_OpacityMaskFilter" filterUnits="userSpaceOnUse" x="40.1" y="25.9" width="6.7" height="2.5">
				<feColorMatrix  type="matrix" values="1 0 0 0 0  0 1 0 0 0  0 0 1 0 0  0 0 0 1 0"/>
			</filter>
		</defs>
		<mask maskUnits="userSpaceOnUse" x="40.1" y="25.9" width="6.7" height="2.5" id="mask-10_1_">
			<g class="st32">
				<path id="path-9_2_" class="st5" d="M42.4,18c2.2,6.7,1.4,10.1-2.4,10.2c-2.2,0.1,0.4,2.5,7.4,2.9c1.4,0.1,4.6-0.6,9.5-2
					c-3.2-1.8-4.4-4-3.8-6.5c0.3-1.2,0.8-4.5-0.9-5.3C51,16.9,47.8,17.1,42.4,18z"/>
			</g>
		</mask>
		
			<linearGradient id="SVGID_1_" gradientUnits="userSpaceOnUse" x1="-279.6084" y1="80.6096" x2="-279.7337" y2="81.5629" gradientTransform="matrix(6.6986 0 0 -2.461 1916.819 226.0582)">
			<stop  offset="0" style="stop-color:#EAAB95"/>
			<stop  offset="1" style="stop-color:#D38B72"/>
		</linearGradient>
		<path class="st33" d="M43.2,25.9c1.5,0.4,2.6,0.5,3.3,0.2c1-0.4-0.7,3.5-4.7,1.9C39.1,26.9,39.6,26.2,43.2,25.9z"/>
		<path id="Path-45-Copy" class="st34" d="M66.3,63.6c6.1,0.1,7.8,2.2,7.1,7.5c-0.7,5.3-5.4,5.6-8.8,6.2c-2.3,0.4-12,0.2-29.1-0.7
			c-2.6-1.9-2.7-3.9-0.4-6C38.5,67.5,60.1,63.5,66.3,63.6z"/>
		<polygon id="Path-51" class="st13" points="51.2,73 62.9,75.2 61.5,78.2 50.2,78.5 		"/>
		<path id="Path-57" class="st35" d="M50,52c4.7,5.2,4.5,8.2,13.5,8.7c0-0.8-0.2-1.6-0.3-2.5S62.9,57,63,56.9
			C54.6,49.8,50,46,49,45.5C47.5,44.8,45.3,46.8,50,52z"/>
		<path id="Path-37" class="st35" d="M54,42.9c5.1,1,8.2,2.2,9.1,3.5c0.9,1.3,0.9,1.8,0,1.4l-8.4,3.1v-4.5L54,42.9z"/>
		<path id="Combined-Shape_1_" class="st13" d="M47.5,45.1c-0.6-0.7-1.4-2.5-0.9-3.1c0.2-0.2,0.5,0,0.8,0.3
			c-0.5-0.8-1.2-2.2-0.7-2.7c0.3-0.3,0.9,0.3,1.5,1.2c-0.5-0.8-0.9-1.9-0.5-2.4c0.3-0.4,1.4,0.9,2.1,2c-0.4-0.8-0.8-1.9-0.5-2.3
			c0.4-0.6,2,1.7,2.7,2.9c0.1,0.1,0.2,0.2,0.5,0.3c0-0.1,0-0.2,0-0.2c0.1-1.1,0.3-1.7,0.6-1.8c0.3-0.1,0.7,1,1,3.4
			c0.1,0.5,0.1,1.2,0,2l-3.4,2.7C49,46.6,47.9,45.9,47.5,45.1z"/>
		<path id="Path-46" class="st31" d="M62,58.3c-5.5-0.4-9.3-3-11.5-7.8c-2.2-4.8-0.9-6.9,4-6.5c5.4,1.2,8.9,3.2,10.4,5.9
			c1.3,2.4,3,7-0.2,8C63.9,58.2,63,58.3,62,58.3z"/>
		<path id="Path-45" class="st36" d="M25.9,63.7c-6.1-0.3-7.9,1.7-7.7,7c0.3,5.4,5,6,8.3,6.8c2.2,0.6,11.9,1,29.1,1.4
			c2.7-1.7,3-3.7,0.8-6C53.3,69.5,32,64,25.9,63.7z"/>
		<path id="Path-52-Copy" class="st37" d="M31.3,78.1c-0.2,0.7-1.7,1.1-4.6,1c-4.4-0.1-4.2-4-0.8-3.6C28.2,75.7,30,76.6,31.3,78.1
			L31.3,78.1z"/>
		<path id="Path-52" class="st37" d="M61,78.2c0.7,0,2.4,0,5.1,0c4,0,4.9-4.6,1.5-3.9c-2.3,0.5-4.3,0.7-6,0.6L61,78.2z"/>
		
			<g id="Group-7" transform="translate(46.668521, 15.453973) scale(-1, 1) rotate(-7.000000) translate(-46.668521, -15.453973) translate(34.668521, 3.953973)">
			<path class="st13" d="M4.7,17.9C4.6,17,4.5,15,5.1,13.7L0.4,7C11,2.7,16.8,0.6,18.1,0.5c1.8-0.1,3.2,4.8,3.3,5.2
				c1.5,9.1-0.3,14.5-5.4,16.1c-0.7,0.2-1.3,0.4-1.9,0.5c0.3,1.5,1.3,2.4,3,2.7c2.2,0.3-0.7,2.4-7.7,2c-1.4-0.1-4.5-1.2-9.2-3.2
				C3.5,22.4,5,20.4,4.7,17.9z"/>
			
				<linearGradient id="Path-14_3_" gradientUnits="userSpaceOnUse" x1="232.6887" y1="94.6421" x2="233.7454" y2="94.6421" gradientTransform="matrix(-2.5975 0.5458 -0.3189 -4.4453 655.6876 306.4155)">
				<stop  offset="0" style="stop-color:#EAAB95"/>
				<stop  offset="1" style="stop-color:#DF9A81"/>
			</linearGradient>
			<path id="Path-14_1_" class="st38" d="M21.2,10.5c1.2,0.9,1.9,1.7,1.9,2.5c0,0.8-0.7,1.4-2.1,2l-0.5-2.7l0.5-1.8H21.2z"/>
		</g>
		<path id="Combined-Shape_2_" class="st39" d="M57.1,5.4c2.3,1.5,3.5,4.4,3.5,8.6c0,1.6-0.4,4.3-1.6,6c-2.1,3.2-5.7,5.7-6,4.4
			c-0.5-1.9-0.5-2.3-2.5-6s-0.5-1.3-1.5-1.3c-0.7,0-1.1-0.7-1.1-2.2c0-2.7-3.3-5-5.3-6.6C40,6.3,37.2,2,37.7,0.8
			c0.2-0.5,1.2-0.5,3-0.2c1,0.2,3.1,0.3,6.5,0.3l0,0c2.2,0,4.2,0.5,5.8,1.3C54.8,2.9,56.1,3.9,57.1,5.4z"/>
		
			<linearGradient id="Path-10_1_" gradientUnits="userSpaceOnUse" x1="-298.6465" y1="74.7299" x2="-298.3126" y2="75.0723" gradientTransform="matrix(3.9492 0 0 -5.693 1230.3124 448.196)">
			<stop  offset="0" style="stop-color:#EAAB95"/>
			<stop  offset="1" style="stop-color:#D38B72"/>
		</linearGradient>
		<path id="Path-10" class="st40" d="M49.3,20c0.4,0.3,0.4,1,1,1.6c0.7,0.7,2.6,2.5,2.8,3.1c0.4,1.3-0.4-3.8-1.9-5.5
			C51.1,19.3,48.7,19.5,49.3,20z"/>
		<path id="Path-15" class="st13" d="M48.9,16.2c1.1-0.9,2.7-1.3,2.9,0.4c0.1,0.9-0.2,2.5-1.3,3.2c-0.8,0.5-2.3,0.6-2.9,0.2
			C46.1,19.1,47.8,17.1,48.9,16.2z"/>
		<path id="Path-8" class="st13" d="M39.3,28.9c-0.1-0.2-0.2-0.3-0.3-0.5c0.3,0,0.6-0.1,0.8-0.1S39.9,28.5,39.3,28.9z"/>
	</g>
</g>
<path class="st41" d="M59.2,114.8C59.2,114.8,59.2,114.8,59.2,114.8c-0.3,0-0.6-0.2-0.7-0.5l-4.4-14.4h-9.9c-0.3,0-0.6-0.2-0.7-0.5
	l-2.7-6.2l-4.1,12.4c-0.1,0.3-0.4,0.5-0.7,0.5c-0.3,0-0.6-0.2-0.7-0.5L24.8,80l-8.1,19.4c-0.1,0.3-0.4,0.5-0.7,0.5H5
	c-0.4,0-0.8-0.3-0.8-0.8s0.3-0.8,0.8-0.8h10.5l8.6-20.6c0.1-0.3,0.4-0.5,0.7-0.5c0,0,0,0,0,0c0.3,0,0.6,0.2,0.7,0.5L36,103.2
	L40,90.8c0.1-0.3,0.4-0.5,0.7-0.5c0.3,0,0.6,0.2,0.7,0.5l3.3,7.6h10c0.3,0,0.6,0.2,0.7,0.5l3.8,12.6l4.2-12.7
	c0.1-0.3,0.4-0.5,0.7-0.5h13.2l3.2-9.9c0.1-0.3,0.4-0.5,0.7-0.5c0.3,0,0.6,0.2,0.7,0.6l2.4,9.8H94c0.4,0,0.8,0.3,0.8,0.8
	s-0.3,0.8-0.8,0.8H83.8c-0.3,0-0.6-0.2-0.7-0.6l-1.9-7.8l-2.6,7.9c-0.1,0.3-0.4,0.5-0.7,0.5H64.7L60,114.2
	C59.9,114.5,59.6,114.8,59.2,114.8z"/>
</svg>
