<?xml version="1.0" encoding="UTF-8"?>
<svg width="18px" height="18px" viewBox="0 0 18 18" version="1.1" xmlns="http://www.w3.org/2000/svg" xmlns:xlink="http://www.w3.org/1999/xlink">
    <!-- Generator: Sketch 52.3 (67297) - http://www.bohemiancoding.com/sketch -->
    <title>Combined Shape</title>
    <desc>Created with Sketch.</desc>
    <g id="Page-1" stroke="none" stroke-width="1" fill="none" fill-rule="evenodd">
        <g id="1-3" transform="translate(-1037.000000, -487.000000)" fill="#CCCCCC">
            <path d="M1046,505 C1041.02944,505 1037,500.970563 1037,496 C1037,491.029437 1041.02944,487 1046,487 C1050.97056,487 1055,491.029437 1055,496 C1055,500.970563 1050.97056,505 1046,505 Z M1049.82253,492.183542 C1049.58589,491.946909 1049.20364,491.946909 1048.96701,492.183542 L1046,495.144482 L1043.03299,492.177474 C1042.79636,491.940842 1042.41411,491.940842 1042.17747,492.177474 C1041.94084,492.414107 1041.94084,492.796359 1042.17747,493.032992 L1045.14448,496 L1042.17747,498.967008 C1041.94084,499.203641 1041.94084,499.585893 1042.17747,499.822526 C1042.41411,500.059158 1042.79636,500.059158 1043.03299,499.822526 L1046,496.855518 L1048.96701,499.822526 C1049.20364,500.059158 1049.58589,500.059158 1049.82253,499.822526 C1050.05916,499.585893 1050.05916,499.203641 1049.82253,498.967008 L1046.85552,496 L1049.82253,493.032992 C1050.05309,492.802427 1050.05309,492.414107 1049.82253,492.183542 Z" id="Combined-Shape"></path>
        </g>
    </g>
</svg>