<?xml version="1.0" encoding="utf-8"?>
<!-- Generator: Adobe Illustrator 22.1.0, SVG Export Plug-In . SVG Version: 6.00 Build 0)  -->
<svg version="1.1" id="Layer_1" xmlns="http://www.w3.org/2000/svg" xmlns:xlink="http://www.w3.org/1999/xlink" x="0px" y="0px"
	 viewBox="0 0 96.8 38.8" style="enable-background:new 0 0 96.8 38.8;" xml:space="preserve">
<style type="text/css">
	.st0{fill:#222237;}
	.st1{fill:#FFFFFF;}
</style>
<g>
	<path class="st0" d="M14.5,37.3L2.8,30.6c-1.7-1-2.8-2.8-2.8-4.8V12.3c0-2,1.1-3.8,2.8-4.8l11.7-6.8c1.7-1,3.8-1,5.5,0l11.7,6.8
		c1.7,1,2.8,2.8,2.8,4.8v13.5c0,2-1.1,3.8-2.8,4.8L20,37.3C18.3,38.3,16.2,38.3,14.5,37.3z"/>
	<g>
		<path class="st1" d="M21,23.7c0,0.6-0.2,1-0.7,1.3c-0.5,0.2-1.4,0.4-2.6,0.4h-3.5v-2.7v-0.2v-0.4v-0.1v-0.7h0v-2.9h3v0h2.1v-1.7
			h-2.1v0h-5.4v4.3v0.2v0.7v0.1v0.4h0v4.5h6c2,0,3.5-0.2,4.4-0.7c0.9-0.5,1.3-1.3,1.3-2.5v-1.1v-0.1H21V23.7z"/>
		<path class="st1" d="M22,11.7c-0.9-0.5-2.4-0.7-4.4-0.7h-6v2.8V14v1.4h2.4V14v-0.2v-1.1h3.5c1.2,0,2.1,0.1,2.6,0.4
			s0.7,0.7,0.7,1.3v1.1v0.1v1.6v1.2c0,0.6-0.2,1-0.7,1.3c-0.5,0.2-1.4,0.4-2.6,0.4h-1.1h0h-0.7v1.7h0.7h0h1.1c2,0,3.5-0.2,4.4-0.7
			c0.9-0.5,1.3-1.3,1.3-2.5v-1.1v-0.2v-1.6v-1.3C23.4,13,22.9,12.2,22,11.7z"/>
	</g>
</g>
<g>
	<path class="st0" d="M56.1,14.1c-2.7,0-4.1,0.9-4.1,2.8v4.6c0,1.8,1.4,2.6,4.1,2.6c0.5,0,1,0,1.4-0.1c0.4-0.1,0.9-0.2,1.3-0.4
		c0.4-0.2,0.8-0.4,1-0.8c0.3-0.4,0.4-0.8,0.4-1.4v-4.6C60.3,15,58.9,14.1,56.1,14.1z M58.9,21.4c0,1.1-0.9,1.7-2.7,1.7
		c-1.8,0-2.7-0.6-2.7-1.7v-4.6c0-0.4,0.1-0.7,0.2-0.9c0.2-0.2,0.4-0.4,0.6-0.6c0.3-0.1,0.6-0.2,0.8-0.3c0.3,0,0.6-0.1,1-0.1
		c1.8,0,2.7,0.6,2.7,1.8V21.4z"/>
	<path class="st0" d="M66.3,18.4h-1.2c-0.6,0-1-0.1-1.3-0.2c-0.2-0.2-0.4-0.4-0.4-0.7v-1.1c0-0.4,0.2-0.8,0.5-0.9
		c0.3-0.2,0.9-0.3,1.9-0.3c0.6,0,1.5,0.1,2.6,0.3v-1.1c-1-0.1-1.8-0.2-2.5-0.2c-1.5,0-2.5,0.2-3,0.6c-0.5,0.4-0.8,0.9-0.8,1.7v0.8
		c0,0.8,0.2,1.4,0.6,1.7c0.4,0.4,1.1,0.6,2,0.6h1.1c0.6,0,1,0.1,1.3,0.3c0.2,0.2,0.4,0.5,0.4,0.9v1.3c0,0.5-0.2,0.8-0.5,0.9
		C66.5,22.9,66,23,65.3,23c-0.9,0-1.9-0.1-3.1-0.4v1.2c1.2,0.2,2.2,0.2,3,0.2c1.3,0,2.2-0.2,2.8-0.6c0.6-0.4,0.9-1.1,0.9-2.2v-0.7
		c0-0.8-0.2-1.4-0.5-1.7C68,18.5,67.3,18.4,66.3,18.4z"/>
	<path class="st0" d="M72.5,22.9c-0.3-0.2-0.4-0.5-0.4-1.1v-3c0-0.6,0.1-1,0.3-1.1c0.2-0.2,0.7-0.3,1.5-0.3c0.7,0,1.5,0.1,2.2,0.3
		v-1c-0.7-0.2-1.4-0.2-2.1-0.2c-0.4,0-0.7,0-0.9,0c-0.2,0-0.5,0-0.8,0.1c-0.3,0-0.5,0.1-0.7,0.2c-0.2,0.1-0.3,0.3-0.5,0.4
		c-0.2,0.2-0.3,0.4-0.4,0.7c-0.1,0.3-0.1,0.6-0.1,1v2.7c0,0.5,0.1,0.8,0.2,1.1c0.1,0.3,0.3,0.5,0.4,0.7s0.4,0.3,0.7,0.4
		c0.3,0.1,0.6,0.1,0.8,0.2c0.2,0,0.6,0,1,0c0.9,0,1.7-0.1,2.3-0.2v-1c-0.8,0.2-1.5,0.3-2.2,0.3C73.2,23.1,72.7,23.1,72.5,22.9z"/>
	<path class="st0" d="M83.8,17.1c-0.2-0.2-0.4-0.3-0.7-0.4c-0.3-0.1-0.6-0.2-0.9-0.2c-0.3,0-0.7,0-1.1,0c-0.5,0-0.9,0-1.1,0
		c-0.3,0-0.6,0.1-0.9,0.2c-0.3,0.1-0.6,0.2-0.7,0.4c-0.2,0.2-0.3,0.4-0.4,0.8c-0.1,0.3-0.2,0.7-0.2,1.2v2.5c0,0.6,0.1,1,0.2,1.4
		c0.1,0.3,0.4,0.6,0.7,0.7c0.3,0.2,0.7,0.3,1,0.3c0.3,0,0.8,0.1,1.4,0.1c0.5,0,0.8,0,1.1,0c0.3,0,0.6-0.1,0.9-0.2
		c0.3-0.1,0.6-0.2,0.7-0.4c0.2-0.2,0.3-0.4,0.4-0.7c0.1-0.3,0.2-0.7,0.2-1.1v-2.5c0-0.5-0.1-0.9-0.2-1.2
		C84.1,17.6,83.9,17.3,83.8,17.1z M83,21.8c0,0.3,0,0.6-0.1,0.8c-0.1,0.2-0.2,0.3-0.4,0.4c-0.2,0.1-0.4,0.1-0.6,0.2
		c-0.2,0-0.5,0-0.9,0c-0.4,0-0.7,0-0.9,0c-0.2,0-0.4-0.1-0.6-0.2c-0.2-0.1-0.3-0.2-0.4-0.4c-0.1-0.2-0.1-0.4-0.1-0.8v-2.9
		c0-0.7,0.1-1.1,0.4-1.2c0.3-0.2,0.8-0.2,1.6-0.2c0.8,0,1.3,0.1,1.6,0.2s0.4,0.6,0.4,1.2V21.8z"/>
	<rect x="86.3" y="16.7" class="st0" width="1.4" height="7.3"/>
	<rect x="86.3" y="14.1" class="st0" width="1.4" height="1.4"/>
	<path class="st0" d="M95.5,17c-0.4-0.3-1-0.5-2-0.5c-1.5,0-2.2,0.3-2.4,1v-0.9h-1.4v7.3h1.4v-5.3c0-0.5,0.1-0.8,0.4-0.9
		c0.3-0.2,0.8-0.3,1.6-0.3c0.3,0,0.6,0,0.8,0.1c0.2,0.1,0.4,0.2,0.5,0.3c0.1,0.1,0.2,0.2,0.2,0.4c0,0.1,0,0.3,0,0.5v5.3H96v-5.3
		C96,17.9,95.8,17.4,95.5,17z"/>
	<path class="st0" d="M48.6,22c0,0.4-0.2,0.6-0.5,0.8c-0.3,0.2-0.9,0.2-1.6,0.2h-2.2v-1.7v-0.1V21v0v-0.5h0v-1.8h1.9v0h1.3v-1.1
		h-1.3v0h-3.4v2.7v0.2V21v0v0.3h0v2.9h3.8c1.3,0,2.2-0.2,2.8-0.5c0.6-0.3,0.9-0.8,0.9-1.6v-0.7v0h-1.5V22z"/>
	<path class="st0" d="M49.3,14.5c-0.6-0.3-1.5-0.5-2.8-0.5h-3.8v1.8v0.1v0.9h1.5v-0.9v-0.1v-0.7h2.2c0.8,0,1.3,0.1,1.6,0.2
		c0.3,0.2,0.5,0.4,0.5,0.8v0.7v0.1v1v0.8c0,0.4-0.2,0.6-0.5,0.8c-0.3,0.2-0.9,0.2-1.6,0.2h-0.7h0h-0.5v1.1h0.5h0h0.7
		c1.3,0,2.2-0.2,2.8-0.5c0.6-0.3,0.9-0.8,0.9-1.6V18v-0.1v-1h0V16C50.2,15.3,49.9,14.8,49.3,14.5z"/>
</g>
</svg>
